<?xml version="1.0" encoding="UTF-8" standalone="no"?> <svg id="Line" xmlns="http://www.w3.org/2000/svg" viewBox="0 0 64 64"><title>1</title><path d="M21.31738,15.26709a14.1717,14.1717,0,0,0-1.71777,1.35107,57.73825,57.73825,0,0,0-6.25488,6.62793A23.49,23.49,0,0,0,10.65234,48.7168C16.90137,60.61426,29.98926,60.042,31.25684,59.957c.18164.01318.60254.03809,1.21289.03809,4.21-.00049,17.373-1.17627,22.18359-15.39991,5.749-17.00048-10.03711-25.49511-10.19727-25.57861a.99975.99975,0,0,0-1.38183.48975c-2.13379,4.94433-1.22949,8.25342.13379,10.292-4.95606-1.96924-5.58985-6.84521-5.4541-9.90576A15.23773,15.23773,0,0,0,37.293,15.0708C34.292,4.34375,23.207,4.00732,23.0957,4.00488h-.01953a1.00008,1.00008,0,0,0-.82031,1.57178C23.76758,7.74561,24.36523,9.73,24.0332,11.4751A6.1078,6.1078,0,0,1,21.31738,15.26709Zm3.67481-9.022a12.89035,12.89035,0,0,1,10.375,9.36474,13.31468,13.31468,0,0,1,.38867,4.19385c-.12207,2.74512.28906,11.77979,10.7041,12.77393a1.00061,1.00061,0,0,0,.52637-1.89746c-.21094-.10254-4.90039-2.4795-2.49121-9.32227,3.18261,2.0249,12.73047,9.38916,8.26367,22.59668C47.54492,59.37158,32.01563,58.02393,31.35938,57.959c-.03321-.00293-.06641-.00488-.09961-.00488-.03223,0-.06348.00147-.09473.0044-.52051.05078-12.83789,1.06689-18.74121-10.17139a21.48919,21.48919,0,0,1,2.4873-23.29785,55.75562,55.75562,0,0,1,6.03809-6.395,12.18207,12.18207,0,0,1,1.47363-1.16113,8.08238,8.08238,0,0,0,3.5752-5.084A8.65132,8.65132,0,0,0,24.99219,6.24512Z"/><path d="M25.14648,39.41748a.9992.9992,0,0,0-1.252.65625,4.38045,4.38045,0,0,1-2.41131,2.64514c-.01838.00873-.03638.01563-.05426.02551-.14759.06836-.29236.13056-.429.18158V36.0498a1,1,0,0,0-2,0V48.2251a1,1,0,0,0,2,0V45.02179c.21307-.05927.45209-.13452.71277-.23273A5.652,5.652,0,0,1,23.374,48.30957a1.00068,1.00068,0,0,0,.9961.91846c.02734,0,.05468-.001.082-.00342a1.00019,1.00019,0,0,0,.916-1.07813,7.55147,7.55147,0,0,0-1.83831-4.32672,6.07053,6.07053,0,0,0,2.27288-3.14935A.99964.99964,0,0,0,25.14648,39.41748Z"/><path d="M29.76855,49.228a3.08129,3.08129,0,0,0,3.082-2.80469,1.00045,1.00045,0,0,0-1.99219-.18652,1.09474,1.09474,0,0,1-2.18457-.10352V43.959a1.0952,1.0952,0,0,1,2.17871-.15966.99969.99969,0,1,0,1.97851-.28809,3.09487,3.09487,0,0,0-6.15722.44775V46.1333A3.09841,3.09841,0,0,0,29.76855,49.228Z"/><path d="M36.65527,43.75049a2.76021,2.76021,0,0,0-1.94043.79834,2.73765,2.73765,0,0,0,1.94043,4.6792h.90528a2.74166,2.74166,0,0,0,2.73828-2.73877V42.8252a1.96009,1.96009,0,0,0-1.958-1.9585H34.90723a1,1,0,0,0,0,2l3.3916-.0415v.92529Zm1.64356,2.73877a.73937.73937,0,0,1-.73828.73877h-.90528a.73538.73538,0,0,1-.748-.73877.741.741,0,0,1,.748-.73877h1.64356Z"/><path d="M44.66016,49.228h1.56152a1,1,0,0,0,0-2H44.66016a.99745.99745,0,0,1-.9961-.9961V36.29a1,1,0,0,0-2,0v9.94189A2.99943,2.99943,0,0,0,44.66016,49.228Z"/></svg>