<?xml version="1.0" encoding="UTF-8" standalone="no"?> <svg xmlns="http://www.w3.org/2000/svg" viewBox="0 0 64 64"><g id="outline"><path d="M18.462,43.105a3.484,3.484,0,0,1-3.106,0,1,1,0,0,0-.894,1.79,5.494,5.494,0,0,0,4.894,0,1,1,0,0,0-.894-1.79Z"/><path d="M61,7H43V5.005a3.008,3.008,0,0,0-3.005-3h-.824a3.008,3.008,0,0,0-3,3.005V7H21a1,1,0,0,0-1,1v3H18a1,1,0,0,0-1,1V38.961a3.536,3.536,0,0,1-.87.163A8.541,8.541,0,0,1,15.491,33l.77-2.846a1,1,0,0,0-1.93-.521l-.537,1.982-.416-1.044a8.034,8.034,0,0,0-6.211-4.944l-4.015-.619a1,1,0,0,0-1.033,1.462l2.188,4.064a8.035,8.035,0,0,0,4.93,3.926l3.96,1.085a10.487,10.487,0,0,0,.451,2.748c-.047-.042-.1-.073-.145-.117l-.287-.287A6.419,6.419,0,0,0,8.646,36a6.494,6.494,0,0,0-6.4,5.548A24.715,24.715,0,0,0,6.483,59.279l.437.622a4.919,4.919,0,0,0,7.965.132l.224-.3a1.03,1.03,0,0,1,1.6,0l.225.3A4.942,4.942,0,0,0,20.869,62H61a1,1,0,0,0,1-1V8A1,1,0,0,0,61,7ZM38.167,5.005a1,1,0,0,1,1-1h.824a1.006,1.006,0,0,1,1.005,1V7H38.167Zm-1,4H46v3a1,1,0,0,1-1,1H35a1,1,0,0,1-1-1V9ZM22,9H32v2H22ZM9.766,32.534a6.019,6.019,0,0,1-3.7-2.943l-1.236-2.3,2.029.313a6.032,6.032,0,0,1,4.66,3.708l.76,1.909Zm8.767,26.3-.224-.3a3,3,0,0,0-4.8,0l-.225.3a2.918,2.918,0,0,1-4.726-.078l-.437-.622a22.721,22.721,0,0,1-3.893-16.3A4.485,4.485,0,0,1,8.646,38,4.432,4.432,0,0,1,11.8,39.307l.287.287a5.33,5.33,0,0,0,6.2,1.008.96.96,0,0,0,.345-.185,5.338,5.338,0,0,0,1.1-.823l.288-.287A4.428,4.428,0,0,1,23.172,38a4.485,4.485,0,0,1,4.417,3.831,22.717,22.717,0,0,1-3.893,16.3l-.436.624a2.919,2.919,0,0,1-4.727.077Zm12.03-10.394a1.509,1.509,0,0,1,0,2.125,1.561,1.561,0,0,1-1.448.367,24.488,24.488,0,0,0,.512-2.9A1.556,1.556,0,0,1,30.563,48.438Zm-1.48-8.517a6.443,6.443,0,0,0-1.057-1.686,1.5,1.5,0,0,1,.412-.8,1.561,1.561,0,0,1,2.125,0,1.509,1.509,0,0,1,0,2.125A1.567,1.567,0,0,1,29.083,39.921ZM24.821,60c.025-.034.053-.063.077-.1l.437-.623h0a24.776,24.776,0,0,0,3.221-6.419,3.5,3.5,0,0,0,3.422-5.835,3.613,3.613,0,0,0-2.184-.994,24.8,24.8,0,0,0-.183-4.041,3.5,3.5,0,0,0,2.367-5.965,3.634,3.634,0,0,0-4.954,0,3.41,3.41,0,0,0-.61.867A6.408,6.408,0,0,0,19,37.532V13H32.184A3,3,0,0,0,35,15H45a3,3,0,0,0,2.816-2H56V60ZM60,60H58V12a1,1,0,0,0-1-1H48V9H60Z"/><path d="M29.5,24A3.5,3.5,0,1,0,33,27.5,3.5,3.5,0,0,0,29.5,24Zm0,5A1.5,1.5,0,1,1,31,27.5,1.5,1.5,0,0,1,29.5,29Z"/><rect x="35" y="18.5" width="11" height="2"/><rect x="35" y="26" width="15" height="2"/><rect x="52" y="26" width="2" height="2"/><rect x="35" y="37" width="15" height="2"/><rect x="52" y="37" width="2" height="2"/><rect x="35" y="48" width="15" height="2"/><rect x="52" y="48" width="2" height="2"/><rect x="36" y="56" width="2" height="2"/><rect x="40" y="56" width="2" height="2"/><rect x="44" y="56" width="2" height="2"/><path d="M53,15H50v2h2v2h2V16A1,1,0,0,0,53,15Z"/><rect x="28" y="15" width="2" height="2"/><rect x="24" y="15" width="2" height="2"/><path d="M52,56H50v2h3a1,1,0,0,0,1-1V54H52Z"/></g></svg>