<?xml version="1.0" encoding="UTF-8"?>
<!DOCTYPE svg PUBLIC "-//W3C//DTD SVG 1.1//EN" "http://www.w3.org/Graphics/SVG/1.1/DTD/svg11.dtd">
<!-- Creator: CorelDRAW -->
<svg xmlns="http://www.w3.org/2000/svg" xml:space="preserve" width="1.70666in" height="1.70666in" version="1.1" style="shape-rendering:geometricPrecision; text-rendering:geometricPrecision; image-rendering:optimizeQuality; fill-rule:evenodd; clip-rule:evenodd"
viewBox="0 0 1707 1707"
 xmlns:xlink="http://www.w3.org/1999/xlink">
 <defs>
  <style type="text/css">
   <![CDATA[
    .fil0 {fill:black}
   ]]>
  </style>
 </defs>
 <g id="Layer_x0020_1">
  <metadata id="CorelCorpID_0Corel-Layer"/>
  <g id="_293628504">
   <g>
    <g id="_293627232">
     <path class="fil0" d="M1683 376l-52 0c-13,0 -24,-10 -24,-23 0,-13 11,-24 24,-24l52 0c12,0 23,11 23,24 0,13 -11,23 -23,23zm-1607 0l-52 0c-13,0 -24,-10 -24,-23 0,-13 11,-24 24,-24l52 0c13,0 23,11 23,24 0,13 -10,23 -23,23z"/>
    </g>
    <g id="_293628240">
     <path class="fil0" d="M187 576l-83 0c-28,0 -52,-23 -52,-51l0 -346c0,-28 24,-52 52,-52l83 0c28,0 52,24 52,52l0 346c0,28 -22,51 -52,51zm-83 -402c-3,0 -5,3 -5,5l0 346c0,2 2,4 5,4l83 0c2,0 5,-2 5,-4l0 -346c0,-2 -3,-5 -5,-5l-83 0z"/>
    </g>
    <g id="_293629056">
     <path class="fil0" d="M1603 576l-84 0c-28,0 -51,-23 -51,-51l0 -346c0,-28 23,-52 51,-52l84 0c28,0 52,24 52,52l0 346c0,28 -24,51 -52,51zm-84 -402c-2,0 -4,3 -4,5l0 346c0,2 2,4 4,4l84 0c2,0 4,-2 4,-4l0 -346c0,-2 -2,-5 -4,-5l-84 0z"/>
    </g>
    <g id="_293628960">
     <path class="fil0" d="M1489 376l-129 0c-13,0 -23,-10 -23,-23 0,-13 10,-24 23,-24l129 0c13,0 24,11 24,24 0,13 -11,23 -24,23zm-285 0l-243 0c-13,0 -24,-10 -24,-23 0,-13 11,-24 24,-24l243 0c12,0 23,11 23,24 0,13 -11,23 -23,23zm-462 0l-247 0c-13,0 -24,-10 -24,-23 0,-13 11,-24 24,-24l247 0c13,0 23,11 23,24 0,13 -10,23 -23,23zm-406 0l-119 0c-12,0 -23,-10 -23,-23 0,-13 11,-24 23,-24l119 0c12,0 23,11 23,24 0,13 -11,23 -23,23z"/>
    </g>
    <g>
     <g id="_293629008">
      <path class="fil0" d="M851 434c-86,0 -155,-68 -155,-154 0,-86 69,-155 155,-155 86,0 155,69 155,155 0,86 -71,154 -155,154zm0 -262c-60,0 -107,48 -107,108 0,60 47,107 107,107 60,0 108,-47 108,-107 0,-60 -50,-108 -108,-108z"/>
     </g>
     <g id="_293628432">
      <path class="fil0" d="M744 1582c-11,0 -22,-3 -30,-9 -39,-21 -63,-82 -60,-157 0,-8 0,-15 0,-21l0 0 0 -7c0,-6 0,-13 0,-21l0 -602c0,-8 0,-17 0,-23 0,-37 0,-37 -31,-67 -8,-9 -17,-17 -27,-28 -18,-17 -33,-32 -50,-49 -17,-15 -34,-33 -51,-50 -35,-36 -73,-75 -110,-111 -22,-22 -43,-43 -64,-65 -31,-32 -31,-82 0,-114l0 0c30,-30 83,-30 113,0l18 17c47,48 94,95 139,144 52,54 52,54 148,52 28,0 65,-2 110,-2 0,0 0,0 0,0 45,0 80,0 107,2 97,2 97,2 149,-52 45,-47 92,-94 139,-141l18 -18c15,-15 34,-23 55,-23 0,0 0,0 0,0 22,0 41,8 56,23 30,33 30,82 0,114 -21,22 -43,43 -64,65 -37,36 -73,73 -110,111 -17,18 -34,35 -51,50 -18,17 -35,32 -50,49 -11,11 -19,22 -28,28 -30,32 -30,32 -30,67 0,6 0,15 0,23l0 602c0,9 0,15 0,21l0 0 0 7 0 0c0,6 0,13 0,21 0,76 -21,131 -60,155 -19,11 -43,11 -62,0 -37,-21 -56,-75 -54,-152l7 -389 -26 0 -26 0 4 389c0,79 -19,135 -53,154 -5,2 -15,7 -26,7zm-43 -189c0,4 0,10 0,23 0,65 19,105 38,116 7,5 11,2 13,0 15,-8 33,-43 30,-114l-4 -410c0,-13 11,-24 24,-24l49 0 50 0c6,0 12,3 17,7 4,4 6,11 6,17l-6 410c0,69 17,103 30,112 4,2 8,4 15,0 19,-11 36,-49 36,-114 0,-13 0,-21 0,-23 0,0 0,-3 0,-3 0,0 0,-2 0,-2 0,-4 0,-10 0,-19l0 -602c0,-8 0,-17 0,-23 0,-54 3,-58 43,-101 7,-9 18,-17 28,-28 18,-17 35,-34 52,-52 17,-15 32,-32 49,-49 35,-37 73,-75 110,-112 21,-21 43,-43 64,-64 13,-13 13,-35 0,-48 -13,-12 -34,-12 -47,0l-17 18c-47,47 -93,94 -140,141 -64,67 -77,69 -182,67 -28,0 -63,-2 -108,-2 0,0 0,0 -2,0 -45,0 -79,0 -107,2 -108,2 -119,2 -183,-67 -45,-47 -92,-94 -140,-143l-17 -18c-13,-13 -34,-13 -47,0 -13,13 -13,35 0,48 21,21 43,43 64,64 37,37 76,75 110,112 15,17 32,32 49,47 18,17 35,32 52,52 11,10 19,21 28,28 41,42 43,47 43,100 0,7 0,16 0,24l0 602c0,8 0,15 0,19 0,4 0,4 0,9 0,-3 0,-3 0,0z"/>
     </g>
    </g>
   </g>
  </g>
 </g>
</svg>
